<svg xmlns="http://www.w3.org/2000/svg" viewBox="0 0 1200 630">
  <rect width="1200" height="630" fill="#FDFCFB"/>
  <rect x="486" y="150" width="228" height="228" rx="52" fill="#1A1A1A"/>
  <g transform="translate(535 197) scale(4.55)" stroke="#E6C9A8" stroke-width="2.35" stroke-linecap="round" stroke-linejoin="round" fill="none">
    <path d="m15 12-8.5 8.5c-.83.83-.83 2.17 0 3 .83.83 2.17.83 3 0L18 15"/>
    <path d="M17.64 15 22 10.64"/>
    <path d="m20.91 11.7-1.25-1.25c-.6-.6-.93-1.4-.93-2.25v-.86L16.01 4.6a5.56 5.56 0 0 0-3.94-1.64H9l.92.82A6.18 6.18 0 0 1 12 8.4v1.56l2 2h2.47l2.26 1.91"/>
  </g>
  <text x="600" y="460" text-anchor="middle" font-family="Arial, Helvetica, sans-serif" font-size="52" font-weight="800" fill="#1A1A1A" letter-spacing="1">
    CARTONGESSO EXPRESS
  </text>
  <text x="600" y="510" text-anchor="middle" font-family="Arial, Helvetica, sans-serif" font-size="24" font-weight="700" fill="#A67C52" letter-spacing="8">
    SOLUZIONI PREMIUM IN CARTONGESSO
  </text>
</svg>
